<svg id="Group_776" data-name="Group 776" xmlns="http://www.w3.org/2000/svg" width="79.19" height="33.474" viewBox="0 0 79.19 33.474">
  <g id="Group_31" data-name="Group 31" transform="translate(0 17.143)">
    <path id="Path_179" data-name="Path 179" d="M290.137,598.055a2.8,2.8,0,0,0,.515,1.107,1.675,1.675,0,0,1,.4.839v.09q0,.425-.537.425h-4.653q-.537,0-.537-.425V600a1.771,1.771,0,0,1,.448-.794,1.4,1.4,0,0,0,.335-1.152l-1.342-7.807-3.423,9.6a.822.822,0,0,1-.805.649.975.975,0,0,1-.94-.627l-3.915-9.977-1.208,8.165a1.435,1.435,0,0,0,.358,1.141,1.687,1.687,0,0,1,.447.805v.09q0,.425-.537.425h-2.774q-.537,0-.537-.425V600a1.652,1.652,0,0,1,.414-.839,2.5,2.5,0,0,0,.5-1.107l1.7-10.962a1.4,1.4,0,0,0-.392-1.141,1.644,1.644,0,0,1-.481-.805v-.09q0-.425.515-.425h2.953a1.163,1.163,0,0,1,1.208.805l3.244,9.485,3.132-9.44a1.159,1.159,0,0,1,1.164-.85h3.042q.514,0,.515.425v.09a1.777,1.777,0,0,1-.492.805,1.4,1.4,0,0,0-.38,1.186Z" transform="translate(-271.435 -584.408)" fill="#39576C"/>
    <path id="Path_180" data-name="Path 180" d="M325.11,600.372a7.871,7.871,0,0,1-7.919-8.076,8.287,8.287,0,0,1,2.181-5.973,8.033,8.033,0,0,1,11.3.078,8.108,8.108,0,0,1,2.315,5.917,7.805,7.805,0,0,1-2.27,5.816A7.674,7.674,0,0,1,325.11,600.372Zm1.163-1.678a2.256,2.256,0,0,0,1.879-.85,3.7,3.7,0,0,0,.671-2.349,14.022,14.022,0,0,0-.716-4.195,13.007,13.007,0,0,0-1.957-3.926,3.351,3.351,0,0,0-2.517-1.655,2.2,2.2,0,0,0-1.846.85,3.867,3.867,0,0,0-.66,2.416,14.368,14.368,0,0,0,.716,4.373,11.846,11.846,0,0,0,1.935,3.792A3.325,3.325,0,0,0,326.273,598.694Z" transform="translate(-299.867 -584.041)" fill="#39576C"/>
    <path id="Path_181" data-name="Path 181" d="M354.9,600.515q-.537,0-.537-.425V600a1.614,1.614,0,0,1,.448-.816,1.747,1.747,0,0,0,.447-1.107V587.07a1.751,1.751,0,0,0-.447-1.107,1.611,1.611,0,0,1-.448-.816v-.09q0-.425.537-.425h5.57a9.226,9.226,0,0,1,5.19,1.3,4.476,4.476,0,0,1,1.946,4,5.072,5.072,0,0,1-1.745,4.038,6.863,6.863,0,0,1-4.653,1.51h-1.857v2.6a1.645,1.645,0,0,0,.5,1.107q.5.549.5.816v.09q0,.425-.537.425Zm5.481-6.6h.828a1.828,1.828,0,0,0,1.622-.872,3.885,3.885,0,0,0,.57-2.17,5.831,5.831,0,0,0-.906-3.389,2.52,2.52,0,0,0-2.024-1.309h-.313q-.805,0-.805,1.074v5.592Q359.353,593.916,360.383,593.916Z" transform="translate(-322.965 -584.408)" fill="#39576C"/>
    <path id="Path_182" data-name="Path 182" d="M384.878,600.515q-.538,0-.537-.425V600a1.614,1.614,0,0,1,.448-.816,1.746,1.746,0,0,0,.447-1.107V587.07a1.75,1.75,0,0,0-.447-1.107,1.611,1.611,0,0,1-.448-.816v-.09q0-.425.537-.425h5.57a9.226,9.226,0,0,1,5.19,1.3,4.476,4.476,0,0,1,1.946,4,5.072,5.072,0,0,1-1.745,4.038,6.863,6.863,0,0,1-4.653,1.51H389.33v2.6a1.645,1.645,0,0,0,.5,1.107q.5.549.5.816v.09q0,.425-.537.425Zm5.481-6.6h.828a1.828,1.828,0,0,0,1.622-.872,3.886,3.886,0,0,0,.57-2.17,5.829,5.829,0,0,0-.906-3.389,2.52,2.52,0,0,0-2.024-1.309h-.314q-.805,0-.805,1.074v5.592Q389.33,593.916,390.359,593.916Z" transform="translate(-341.592 -584.408)" fill="#39576C"/>
    <path id="Path_183" data-name="Path 183" d="M415.042,600.515q-.537,0-.537-.425V600a1.612,1.612,0,0,1,.448-.816,1.772,1.772,0,0,0,.447-1.129V587.093a1.774,1.774,0,0,0-.447-1.13,1.61,1.61,0,0,1-.448-.816v-.09q0-.425.515-.425h10.246a.751.751,0,0,1,.526.156.948.948,0,0,1,.235.537l.537,2.819a.553.553,0,0,1-.112.47.563.563,0,0,1-.447.179h-.112a1.273,1.273,0,0,1-.861-.414,5.337,5.337,0,0,1-.761-.895,4.228,4.228,0,0,0-.828-.895,1.626,1.626,0,0,0-1.041-.414h-1.969q-1.006,0-1.007,1.1v4.385h2.349a1.045,1.045,0,0,0,.716-.28,1.909,1.909,0,0,0,.469-.615,3.366,3.366,0,0,1,.369-.615.568.568,0,0,1,.414-.28h.179q.447,0,.448.515v4.027c0,.344-.15.514-.448.514h-.179a.569.569,0,0,1-.414-.268,3.341,3.341,0,0,1-.369-.581,1.878,1.878,0,0,0-.469-.582,1.069,1.069,0,0,0-.716-.269h-2.349v4.116a2.062,2.062,0,0,0,.313,1.152,1.134,1.134,0,0,0,1.029.481h2.349a1.421,1.421,0,0,0,1-.436,4.087,4.087,0,0,0,.749-.951,4.805,4.805,0,0,1,.705-.951,1.2,1.2,0,0,1,.861-.436h.2a.426.426,0,0,1,.38.212.624.624,0,0,1,.089.458l-.492,2.93a1.018,1.018,0,0,1-.235.548.755.755,0,0,1-.548.168Z" transform="translate(-360.335 -584.408)" fill="#39576C"/>
    <path id="Path_184" data-name="Path 184" d="M448.237,600.515q-.515,0-.515-.425V600a1.579,1.579,0,0,1,.481-.816,1.68,1.68,0,0,0,.481-1.107V586.31H447.5a1.267,1.267,0,0,0-.928.425,3.367,3.367,0,0,0-.649.928,4.662,4.662,0,0,1-.57.928.907.907,0,0,1-.671.425H444.3q-.626,0-.559-.649l.447-3.043a.684.684,0,0,1,.76-.693h11.5a.7.7,0,0,1,.761.693l.47,3.065a.523.523,0,0,1-.112.459.583.583,0,0,1-.447.168h-.38a.906.906,0,0,1-.671-.425,5.109,5.109,0,0,1-.582-.928,3.454,3.454,0,0,0-.671-.928,1.305,1.305,0,0,0-.939-.425h-1.164v11.767a1.679,1.679,0,0,0,.481,1.107,1.583,1.583,0,0,1,.481.816v.09q0,.425-.537.425Z" transform="translate(-378.497 -584.408)" fill="#39576C"/>
  </g>
  <path id="Path_185" data-name="Path 185" d="M293.319,540.04h-5.025c-.354,0-.53.146-.53.438v.093a1.677,1.677,0,0,0,.449.841,1.829,1.829,0,0,1,.449,1.141l-.023,4.7h-6.062l.023-4.7a1.734,1.734,0,0,1,.5-1.141,1.629,1.629,0,0,0,.5-.841v-.093q0-.438-.553-.438h-5.025q-.554,0-.553.438v.093a1.658,1.658,0,0,0,.461.841,1.8,1.8,0,0,1,.461,1.141v11.341a1.8,1.8,0,0,1-.461,1.141,1.661,1.661,0,0,0-.461.842v.092q0,.438.553.438h5.025q.553,0,.553-.438v-.092a1.621,1.621,0,0,0-.507-.842,1.713,1.713,0,0,1-.507-1.141l.023-4.841h6.039l.023,4.841a1.826,1.826,0,0,1-.449,1.141,1.68,1.68,0,0,0-.449.842v.092c0,.292.176.438.53.438h5.025q.553,0,.553-.438v-.092q0-.277-.518-.842a1.7,1.7,0,0,1-.519-1.141V542.553a1.7,1.7,0,0,1,.519-1.141q.518-.564.518-.841v-.093Q293.872,540.04,293.319,540.04Z" transform="translate(-275.179 -540.04)" fill="#39576C"/>
  <path id="Path_186" data-name="Path 186" d="M338.032,555.034a3.3,3.3,0,0,1-.795-1.141l-5.256-12.747a1.616,1.616,0,0,0-1.591-1.107h-2.95q-.531,0-.53.438v.093a1.091,1.091,0,0,0,.288.576,5.3,5.3,0,0,1,.507.783.914.914,0,0,1,.058.807l-4.311,11.157a3.426,3.426,0,0,1-.795,1.152q-.542.53-.542.83v.092q0,.438.553.438h3.412q.553,0,.553-.438v-.092a.777.777,0,0,0-.334-.542,3.46,3.46,0,0,1-.576-.634.845.845,0,0,1-.081-.807l.507-1.43H332l.507,1.43a.847.847,0,0,1-.081.807,3.475,3.475,0,0,1-.576.634.776.776,0,0,0-.334.542v.092q0,.438.53.438h5.97q.553,0,.553-.438v-.092Q338.574,555.553,338.032,555.034Zm-11.26-4.3,2.305-6.431,2.3,6.431Z" transform="translate(-302.413 -540.04)" fill="#39576C"/>
  <path id="Path_187" data-name="Path 187" d="M378.611,541.377a9.5,9.5,0,0,0-5.348-1.337h-1.488a1.955,1.955,0,0,1-1.193.414h-.074a1.45,1.45,0,0,1-1.08-.368,1.815,1.815,0,0,1-1.336.591,1.617,1.617,0,0,1-1.061-.374c-.013.012-.027.022-.041.033a.514.514,0,0,0-.02.141v.093a1.659,1.659,0,0,0,.461.841,1.8,1.8,0,0,1,.461,1.141v11.341a1.8,1.8,0,0,1-.461,1.141,1.661,1.661,0,0,0-.461.842v.092q0,.438.553.438h5.071q.554,0,.553-.438v-.092q0-.277-.519-.842a1.7,1.7,0,0,1-.519-1.141V551.22h1.913a7.072,7.072,0,0,0,4.795-1.556,5.226,5.226,0,0,0,1.8-4.161A4.611,4.611,0,0,0,378.611,541.377Zm-2.916,7.33a1.883,1.883,0,0,1-1.671.9h-.853q-1.06,0-1.06-1.106v-5.763q0-1.106.83-1.106h.323a2.6,2.6,0,0,1,2.086,1.349,6.008,6.008,0,0,1,.933,3.492A4,4,0,0,1,375.695,548.707Z" transform="translate(-329.768 -540.04)" fill="#39576C"/>
  <path id="Path_188" data-name="Path 188" d="M413.072,541.377a9.5,9.5,0,0,0-5.348-1.337h-5.74q-.553,0-.553.438v.093a1.663,1.663,0,0,0,.461.841,1.806,1.806,0,0,1,.461,1.141v11.341a1.8,1.8,0,0,1-.461,1.141,1.666,1.666,0,0,0-.461.842v.092q0,.438.553.438h5.071q.553,0,.553-.438v-.092q0-.277-.519-.842a1.7,1.7,0,0,1-.518-1.141V551.22h1.913a7.069,7.069,0,0,0,4.794-1.556,5.226,5.226,0,0,0,1.8-4.161A4.612,4.612,0,0,0,413.072,541.377Zm-2.916,7.33a1.882,1.882,0,0,1-1.671.9h-.853q-1.06,0-1.06-1.106v-5.763q0-1.106.83-1.106h.323a2.6,2.6,0,0,1,2.086,1.349,6.008,6.008,0,0,1,.934,3.492A4,4,0,0,1,410.156,548.707Z" transform="translate(-350.784 -540.04)" fill="#39576C"/>
  <path id="Path_189" data-name="Path 189" d="M449.058,540.04h-3.434q-.553,0-.553.438v.093q0,.254.38.542a2.849,2.849,0,0,1,.622.634.717.717,0,0,1-.012.807l-3.042,5.532-3.066-5.532a.706.706,0,0,1,.011-.784,3.219,3.219,0,0,1,.611-.646.8.8,0,0,0,.369-.553v-.093q0-.438-.553-.438h-6.246q-.553,0-.553.438v.093a.745.745,0,0,0,.23.518q.231.242.646.622a4.37,4.37,0,0,1,.714.841l4.656,7.515v3.826a1.8,1.8,0,0,1-.461,1.141,1.663,1.663,0,0,0-.461.842v.092q0,.438.553.438h5.071q.553,0,.553-.438v-.092a1.62,1.62,0,0,0-.507-.842,1.713,1.713,0,0,1-.507-1.141v-4.2l3.988-7.145a4.133,4.133,0,0,1,.922-1.129q.6-.53.6-.853v-.093Q449.588,540.04,449.058,540.04Z" transform="translate(-370.397 -540.04)" fill="#39576C"/>
</svg>
