<svg width="27" height="26" viewBox="0 0 27 26" fill="none" xmlns="http://www.w3.org/2000/svg">
<path d="M4.69231 5.61538H24.8171C24.9523 5.61538 25.0859 5.64508 25.2083 5.70238C25.3308 5.75968 25.4392 5.84317 25.5258 5.94697C25.6124 6.05076 25.6752 6.17232 25.7097 6.30304C25.7442 6.43377 25.7495 6.57048 25.7254 6.7035L23.7125 17.7804C23.6739 17.9931 23.5618 18.1855 23.3958 18.324C23.2298 18.4626 23.0205 18.5385 22.8043 18.5385H7.82137C7.60528 18.5385 7.39604 18.4627 7.2301 18.3242C7.06416 18.1858 6.95204 17.9936 6.91327 17.781L3.99128 1.75748C3.95251 1.54489 3.84039 1.35265 3.67445 1.21423C3.50851 1.07581 3.29927 1 3.08318 1H1" stroke="#39576C" stroke-width="2" stroke-linecap="round" stroke-linejoin="round"/>
<path d="M8.38461 25.0009C9.40421 25.0009 10.2308 24.1744 10.2308 23.1547C10.2308 22.1351 9.40421 21.3086 8.38461 21.3086C7.365 21.3086 6.53845 22.1351 6.53845 23.1547C6.53845 24.1744 7.365 25.0009 8.38461 25.0009Z" fill="#39576C" stroke="#39576C" stroke-width="2" stroke-linecap="round" stroke-linejoin="round"/>
<path d="M22.2308 25.0009C23.2504 25.0009 24.077 24.1744 24.077 23.1547C24.077 22.1351 23.2504 21.3086 22.2308 21.3086C21.2112 21.3086 20.3846 22.1351 20.3846 23.1547C20.3846 24.1744 21.2112 25.0009 22.2308 25.0009Z" fill="#39576C" stroke="#39576C" stroke-width="2" stroke-linecap="round" stroke-linejoin="round"/>
</svg>
