<svg width="32" height="32" viewBox="0 0 32 32" fill="none" xmlns="http://www.w3.org/2000/svg">
<path d="M17.3438 20.1556L4.6875 20.1556" stroke="#333333" stroke-width="2" stroke-linecap="round" stroke-linejoin="round"/>
<path d="M25.3125 20.1556L22.0312 20.1556" stroke="#333333" stroke-width="2" stroke-linecap="round" stroke-linejoin="round"/>
<path d="M19.6875 22.4993C20.9819 22.4993 22.0312 21.45 22.0312 20.1556C22.0312 18.8612 20.9819 17.8118 19.6875 17.8118C18.3931 17.8118 17.3438 18.8612 17.3438 20.1556C17.3438 21.45 18.3931 22.4993 19.6875 22.4993Z" stroke="#333333" stroke-width="2" stroke-linecap="round" stroke-linejoin="round"/>
<path d="M9.84375 9.8429L4.6875 9.84283" stroke="#333333" stroke-width="2" stroke-linecap="round" stroke-linejoin="round"/>
<path d="M25.3125 9.84283L14.5312 9.8429" stroke="#333333" stroke-width="2" stroke-linecap="round" stroke-linejoin="round"/>
<path d="M12.1875 12.1868C13.4819 12.1868 14.5312 11.1375 14.5312 9.84308C14.5312 8.54866 13.4819 7.49933 12.1875 7.49933C10.8931 7.49933 9.84375 8.54866 9.84375 9.84308C9.84375 11.1375 10.8931 12.1868 12.1875 12.1868Z" stroke="#333333" stroke-width="2" stroke-linecap="round" stroke-linejoin="round"/>
</svg>
