<svg width="24" height="24" viewBox="0 0 24 24" fill="none" xmlns="http://www.w3.org/2000/svg">
<path d="M2.83331 13.3281V21.167C2.83331 21.4101 2.92989 21.6433 3.1018 21.8152C3.27371 21.9871 3.50686 22.0836 3.74998 22.0836H20.25C20.4931 22.0836 20.7263 21.9871 20.8982 21.8152C21.0701 21.6433 21.1666 21.4101 21.1666 21.167V13.3283" stroke="#333333" stroke-width="2" stroke-linecap="round" stroke-linejoin="round"/>
<path d="M3.52478 1.91797H20.4752C20.6744 1.91797 20.8682 1.98286 21.0272 2.10282C21.1863 2.22277 21.3019 2.39127 21.3566 2.58281L23 8.33464H1L2.64338 2.58281C2.6981 2.39127 2.81373 2.22277 2.97276 2.10282C3.1318 1.98286 3.32558 1.91797 3.52478 1.91797Z" stroke="#333333" stroke-width="2" stroke-linecap="round" stroke-linejoin="round"/>
<path d="M8.33333 8.33594V10.1693C8.33333 11.1417 7.94703 12.0744 7.25939 12.762C6.57176 13.4496 5.63913 13.8359 4.66667 13.8359C3.69421 13.8359 2.76158 13.4496 2.07394 12.762C1.38631 12.0744 1 11.1417 1 10.1693V8.33594" stroke="#333333" stroke-width="2" stroke-linecap="round" stroke-linejoin="round"/>
<path d="M15.6666 8.33594V10.1693C15.6666 11.1417 15.2803 12.0744 14.5927 12.762C13.9051 13.4496 12.9724 13.8359 12 13.8359C11.0275 13.8359 10.0949 13.4496 9.40725 12.762C8.71962 12.0744 8.33331 11.1417 8.33331 10.1693V8.33594" stroke="#333333" stroke-width="2" stroke-linecap="round" stroke-linejoin="round"/>
<path d="M23 8.33594V10.1693C23 11.1417 22.6137 12.0744 21.9261 12.762C21.2384 13.4496 20.3058 13.8359 19.3334 13.8359C18.3609 13.8359 17.4283 13.4496 16.7406 12.762C16.053 12.0744 15.6667 11.1417 15.6667 10.1693V8.33594" stroke="#333333" stroke-width="2" stroke-linecap="round" stroke-linejoin="round"/>
</svg>
