<svg width="30" height="30" viewBox="0 0 30 30" fill="none" xmlns="http://www.w3.org/2000/svg">
<path d="M4.86957 13.6957H10.087V25H4.86957C4.63894 25 4.41776 24.9084 4.25469 24.7453C4.09161 24.5823 4 24.3611 4 24.1305V14.5652C4 14.3346 4.09161 14.1134 4.25469 13.9504C4.41776 13.7873 4.63894 13.6957 4.86957 13.6957V13.6957Z" stroke="#D3D3D3" stroke-width="2" stroke-linecap="round" stroke-linejoin="round"/>
<path d="M10.0869 13.6957L14.4348 5C14.8915 5 15.3438 5.08997 15.7658 5.26477C16.1878 5.43957 16.5713 5.69577 16.8943 6.01876C17.2173 6.34175 17.4735 6.72519 17.6483 7.14719C17.8231 7.56919 17.913 8.02149 17.913 8.47826V11.087H24.6386C24.8852 11.087 25.129 11.1394 25.3538 11.2408C25.5786 11.3422 25.7792 11.4903 25.9424 11.6751C26.1056 11.86 26.2276 12.0775 26.3004 12.3131C26.3731 12.5487 26.3949 12.7971 26.3643 13.0418L25.06 23.4766C25.0074 23.8972 24.803 24.2841 24.4852 24.5647C24.1675 24.8452 23.7582 25 23.3343 25H10.0869" stroke="#D3D3D3" stroke-width="2" stroke-linecap="round" stroke-linejoin="round"/>
</svg>
